<svg width="500" height="1033" viewBox="0 0 500 1033" fill="none" xmlns="http://www.w3.org/2000/svg">
<g opacity="0.4" filter="url(#filter0_f_4925_1073)">
<path d="M432.022 640.917C404.42 525.82 298.535 457.516 195.522 488.356C92.5089 519.196 31.3764 637.502 58.9787 752.599C86.581 867.696 192.466 935.999 295.479 905.159C398.492 874.319 459.624 756.014 432.022 640.917Z" fill="url(#paint0_linear_4925_1073)" fill-opacity="0.35"/>
<path d="M60.0005 339.697C60.0005 461.033 146.423 559.395 253.03 559.395C359.637 559.395 446.06 461.033 446.06 339.697C446.06 218.362 359.637 120 253.03 120C146.423 120 60.0005 218.362 60.0005 339.697Z" fill="url(#paint1_linear_4925_1073)" fill-opacity="0.35"/>
</g>
<defs>
<filter id="filter0_f_4925_1073" x="-67.6494" y="0" width="633.709" height="1032.56" filterUnits="userSpaceOnUse" color-interpolation-filters="sRGB">
<feFlood flood-opacity="0" result="BackgroundImageFix"/>
<feBlend mode="normal" in="SourceGraphic" in2="BackgroundImageFix" result="shape"/>
<feGaussianBlur stdDeviation="60" result="effect1_foregroundBlur_4925_1073"/>
</filter>
<linearGradient id="paint0_linear_4925_1073" x1="203.24" y1="501.064" x2="166.457" y2="898.128" gradientUnits="userSpaceOnUse">
<stop stop-color="#001AFF"/>
<stop offset="1" stop-color="#6EE5C2"/>
</linearGradient>
<linearGradient id="paint1_linear_4925_1073" x1="218.522" y1="149.804" x2="312.874" y2="481.31" gradientUnits="userSpaceOnUse">
<stop stop-color="#FFC83A"/>
<stop offset="0.504191" stop-color="#FF008A"/>
<stop offset="1" stop-color="#6100FF"/>
</linearGradient>
</defs>
</svg>
