<svg width="32" height="32" viewBox="0 0 32 32" fill="none" xmlns="http://www.w3.org/2000/svg">
<rect x="0.85" y="3.85" width="30.3" height="27.3" rx="6.15" fill="url(#paint0_linear_4928_1381)" stroke="url(#paint1_linear_4928_1381)" stroke-width="0.3"/>
<mask id="path-2-inside-1_4928_1381" fill="white">
<path d="M1 10C1 6.68629 3.68629 4 7 4H25C28.3137 4 31 6.68629 31 10V14H1V10Z"/>
</mask>
<path d="M1 10C1 6.68629 3.68629 4 7 4H25C28.3137 4 31 6.68629 31 10V14H1V10Z" fill="url(#paint2_linear_4928_1381)"/>
<path d="M1 4H31H1ZM31 15H1V13H31V15ZM1 14V4V14ZM31 4V14V4Z" fill="#F1A29F" mask="url(#path-2-inside-1_4928_1381)"/>
<circle cx="7" cy="19" r="1.85" fill="url(#paint3_linear_4928_1381)" stroke="#E8E8E8" stroke-width="0.3"/>
<circle cx="16" cy="19" r="1.85" fill="url(#paint4_linear_4928_1381)" stroke="#E8E8E8" stroke-width="0.3"/>
<circle cx="25" cy="19" r="1.85" fill="url(#paint5_linear_4928_1381)" stroke="#E8E8E8" stroke-width="0.3"/>
<circle cx="7" cy="25" r="1.85" fill="url(#paint6_linear_4928_1381)" stroke="#E8E8E8" stroke-width="0.3"/>
<circle cx="16" cy="25" r="1.85" fill="url(#paint7_linear_4928_1381)" stroke="#E8E8E8" stroke-width="0.3"/>
<circle cx="25" cy="25" r="1.85" fill="url(#paint8_linear_4928_1381)" stroke="#E8E8E8" stroke-width="0.3"/>
<g filter="url(#filter0_d_4928_1381)">
<rect x="8" y="1" width="2" height="8" rx="1" fill="url(#paint9_linear_4928_1381)"/>
</g>
<g filter="url(#filter1_d_4928_1381)">
<rect x="22" y="1" width="2" height="8" rx="1" fill="url(#paint10_linear_4928_1381)"/>
</g>
<defs>
<filter id="filter0_d_4928_1381" x="7" y="0" width="6" height="12" filterUnits="userSpaceOnUse" color-interpolation-filters="sRGB">
<feFlood flood-opacity="0" result="BackgroundImageFix"/>
<feColorMatrix in="SourceAlpha" type="matrix" values="0 0 0 0 0 0 0 0 0 0 0 0 0 0 0 0 0 0 127 0" result="hardAlpha"/>
<feOffset dx="1" dy="1"/>
<feGaussianBlur stdDeviation="1"/>
<feComposite in2="hardAlpha" operator="out"/>
<feColorMatrix type="matrix" values="0 0 0 0 0 0 0 0 0 0 0 0 0 0 0 0 0 0 0.4 0"/>
<feBlend mode="normal" in2="BackgroundImageFix" result="effect1_dropShadow_4928_1381"/>
<feBlend mode="normal" in="SourceGraphic" in2="effect1_dropShadow_4928_1381" result="shape"/>
</filter>
<filter id="filter1_d_4928_1381" x="21" y="0" width="6" height="12" filterUnits="userSpaceOnUse" color-interpolation-filters="sRGB">
<feFlood flood-opacity="0" result="BackgroundImageFix"/>
<feColorMatrix in="SourceAlpha" type="matrix" values="0 0 0 0 0 0 0 0 0 0 0 0 0 0 0 0 0 0 127 0" result="hardAlpha"/>
<feOffset dx="1" dy="1"/>
<feGaussianBlur stdDeviation="1"/>
<feComposite in2="hardAlpha" operator="out"/>
<feColorMatrix type="matrix" values="0 0 0 0 0 0 0 0 0 0 0 0 0 0 0 0 0 0 0.4 0"/>
<feBlend mode="normal" in2="BackgroundImageFix" result="effect1_dropShadow_4928_1381"/>
<feBlend mode="normal" in="SourceGraphic" in2="effect1_dropShadow_4928_1381" result="shape"/>
</filter>
<linearGradient id="paint0_linear_4928_1381" x1="2" y1="20.5" x2="28.5" y2="20.5" gradientUnits="userSpaceOnUse">
<stop stop-color="#EDEEEE"/>
<stop offset="1" stop-color="#EEEDEC"/>
</linearGradient>
<linearGradient id="paint1_linear_4928_1381" x1="0.5" y1="17" x2="32" y2="17" gradientUnits="userSpaceOnUse">
<stop stop-color="#E2E3E3"/>
<stop offset="1" stop-color="#C4C4C4"/>
</linearGradient>
<linearGradient id="paint2_linear_4928_1381" x1="1.5" y1="9.5" x2="31" y2="9.5" gradientUnits="userSpaceOnUse">
<stop stop-color="#FE4D4B"/>
<stop offset="1" stop-color="#FC4646"/>
</linearGradient>
<linearGradient id="paint3_linear_4928_1381" x1="5.5" y1="17.5" x2="8.5" y2="20" gradientUnits="userSpaceOnUse">
<stop stop-color="#ACA9A9"/>
<stop offset="0.970627" stop-color="#E6E6E5"/>
</linearGradient>
<linearGradient id="paint4_linear_4928_1381" x1="14.5" y1="17.5" x2="17.5" y2="20" gradientUnits="userSpaceOnUse">
<stop stop-color="#ACA9A9"/>
<stop offset="0.970627" stop-color="#E6E6E5"/>
</linearGradient>
<linearGradient id="paint5_linear_4928_1381" x1="23.5" y1="17.5" x2="26.5" y2="20" gradientUnits="userSpaceOnUse">
<stop stop-color="#ACA9A9"/>
<stop offset="0.970627" stop-color="#E6E6E5"/>
</linearGradient>
<linearGradient id="paint6_linear_4928_1381" x1="5.5" y1="23.5" x2="8.5" y2="26" gradientUnits="userSpaceOnUse">
<stop stop-color="#ACA9A9"/>
<stop offset="0.970627" stop-color="#E6E6E5"/>
</linearGradient>
<linearGradient id="paint7_linear_4928_1381" x1="14.5" y1="23.5" x2="17.5" y2="26" gradientUnits="userSpaceOnUse">
<stop stop-color="#ACA9A9"/>
<stop offset="0.970627" stop-color="#E6E6E5"/>
</linearGradient>
<linearGradient id="paint8_linear_4928_1381" x1="23.5" y1="23.5" x2="26.5" y2="26" gradientUnits="userSpaceOnUse">
<stop stop-color="#ACA9A9"/>
<stop offset="0.970627" stop-color="#E6E6E5"/>
</linearGradient>
<linearGradient id="paint9_linear_4928_1381" x1="8.33333" y1="1" x2="11.1279" y2="8.45205" gradientUnits="userSpaceOnUse">
<stop stop-color="#F8F8F8"/>
<stop offset="1" stop-color="#8E9E9A"/>
</linearGradient>
<linearGradient id="paint10_linear_4928_1381" x1="22.3333" y1="1" x2="25.1279" y2="8.45205" gradientUnits="userSpaceOnUse">
<stop stop-color="#F8F8F8"/>
<stop offset="1" stop-color="#8E9E9A"/>
</linearGradient>
</defs>
</svg>
