<svg width="24" height="24" viewBox="0 0 24 24" fill="none" xmlns="http://www.w3.org/2000/svg">
<rect width="24" height="24" fill="white"/>
<path d="M10.1437 6.629C10.9303 4.668 11.3236 3.6875 12 3.6875C12.6763 3.6875 13.0696 4.668 13.8562 6.629L13.8928 6.72031C14.3372 7.82818 14.5594 8.38212 15.0123 8.7188C15.4651 9.05549 16.0596 9.10873 17.2485 9.21521L17.4634 9.23446C19.4092 9.40872 20.3822 9.49585 20.5903 10.1148C20.7985 10.7338 20.076 11.3912 18.6309 12.7058L18.1487 13.1446C17.4172 13.8101 17.0514 14.1429 16.8809 14.579C16.8491 14.6604 16.8227 14.7437 16.8018 14.8285C16.6897 15.2832 16.7968 15.7659 17.0111 16.7314L17.0777 17.0319C17.4714 18.8063 17.6682 19.6934 17.3246 20.0761C17.1961 20.2191 17.0292 20.322 16.8438 20.3726C16.3476 20.508 15.6431 19.934 14.2342 18.7859C13.309 18.032 12.8464 17.6551 12.3153 17.5703C12.1064 17.5369 11.8935 17.5369 11.6846 17.5703C11.1535 17.6551 10.6909 18.032 9.76577 18.7859C8.35681 19.934 7.65234 20.508 7.15614 20.3726C6.97072 20.322 6.80381 20.2191 6.67538 20.0761C6.33171 19.6934 6.52854 18.8063 6.92222 17.0319L6.98889 16.7314C7.2031 15.7659 7.31021 15.2832 7.19815 14.8285C7.17725 14.7437 7.15081 14.6604 7.11901 14.579C6.94854 14.1429 6.58279 13.8101 5.85128 13.1446L5.369 12.7059C3.92395 11.3912 3.20143 10.7338 3.40961 10.1148C3.61779 9.49585 4.5907 9.40872 6.53651 9.23446L6.75145 9.21521C7.94036 9.10873 8.53482 9.05549 8.98767 8.7188C9.44052 8.38212 9.66272 7.82818 10.1071 6.72031L10.1437 6.629Z" stroke="#222222"/>
</svg>
