<svg width="16" height="16" viewBox="0 0 16 16" fill="none" xmlns="http://www.w3.org/2000/svg">
<path d="M7.53613 1.49707C7.70414 1.07901 8.29586 1.07901 8.46387 1.49707L9.88867 5.04395C10.1032 5.57821 10.6043 5.94246 11.1787 5.98145L14.9922 6.24023C15.4418 6.27072 15.6251 6.83406 15.2793 7.12305L12.3457 9.57324C11.9039 9.94241 11.7121 10.5324 11.8525 11.0908L12.7852 14.7969C12.8951 15.2338 12.4168 15.5819 12.0352 15.3428L8.79785 13.3105C8.31021 13.0044 7.68979 13.0044 7.20215 13.3105L3.96484 15.3428C3.5832 15.5819 3.10492 15.2338 3.21484 14.7969L4.14746 11.0908C4.28793 10.5324 4.09615 9.94241 3.6543 9.57324L0.720703 7.12305C0.374901 6.83406 0.558165 6.27072 1.00781 6.24023L4.82129 5.98145C5.3957 5.94246 5.89677 5.5782 6.11133 5.04395L7.53613 1.49707Z" stroke="url(#paint0_linear_2662_70)"/>
<defs>
<linearGradient id="paint0_linear_2662_70" x1="3" y1="2" x2="19.5" y2="25" gradientUnits="userSpaceOnUse">
<stop stop-color="#7192FF"/>
<stop offset="0.9979" stop-color="#4DFF19"/>
</linearGradient>
</defs>
</svg>
