<svg width="500" height="486" viewBox="0 0 500 486" fill="none" xmlns="http://www.w3.org/2000/svg">
<g opacity="0.4" filter="url(#filter0_f_5575_1432)">
<path d="M161.5 365C238.544 365 301 310.379 301 243C301 175.621 238.544 121 161.5 121C84.4563 121 22 175.621 22 243C22 310.379 84.4563 365 161.5 365Z" fill="url(#paint0_linear_5575_1432)" fill-opacity="0.4"/>
<path d="M303.178 124.699C230.178 142.206 186.856 209.363 206.417 274.699C225.977 340.035 301.012 378.808 374.012 361.301C447.012 343.795 490.334 276.637 470.773 211.301C451.213 145.965 376.178 107.192 303.178 124.699Z" fill="url(#paint1_linear_5575_1432)" fill-opacity="0.4"/>
</g>
<defs>
<filter id="filter0_f_5575_1432" x="-120" y="-40" width="740" height="553" filterUnits="userSpaceOnUse" color-interpolation-filters="sRGB">
<feFlood flood-opacity="0" result="BackgroundImageFix"/>
<feBlend mode="normal" in="SourceGraphic" in2="BackgroundImageFix" result="shape"/>
<feGaussianBlur stdDeviation="60" result="effect1_foregroundBlur_5575_1432"/>
</filter>
<linearGradient id="paint0_linear_5575_1432" x1="40.9244" y1="264.81" x2="251.272" y2="204.664" gradientUnits="userSpaceOnUse">
<stop stop-color="#00FF11"/>
<stop offset="0.504191" stop-color="#00F7FF"/>
<stop offset="1" stop-color="white"/>
</linearGradient>
<linearGradient id="paint1_linear_5575_1432" x1="214.477" y1="269.804" x2="466.314" y2="293.133" gradientUnits="userSpaceOnUse">
<stop stop-color="white"/>
<stop offset="1" stop-color="#003CFF"/>
</linearGradient>
</defs>
</svg>
