<svg width="25" height="24" viewBox="0 0 25 24" fill="none" xmlns="http://www.w3.org/2000/svg">
<path d="M15.6875 5.42383C16.1118 5.46926 16.4499 5.66401 16.7188 5.86914C17.003 6.08603 17.3078 6.39374 17.6211 6.70703L17.793 6.87891C18.1063 7.1922 18.414 7.49698 18.6309 7.78125C18.8653 8.08862 19.0859 8.48644 19.0859 9C19.0859 9.51356 18.8653 9.91138 18.6309 10.2188C18.414 10.503 18.1063 10.8078 17.793 11.1211L10.5986 18.3154C10.4416 18.4725 10.2382 18.6886 9.97461 18.8379C9.71089 18.9872 9.42063 19.0506 9.20508 19.1045L6.59668 19.7559L6.59473 19.7568L6.55078 19.7676C6.40293 19.8045 6.18156 19.8628 5.9873 19.8818C5.78061 19.9021 5.32874 19.9088 4.95996 19.54C4.59118 19.1713 4.59794 18.7194 4.61816 18.5127C4.63719 18.3184 4.69546 18.0971 4.73242 17.9492L5.39551 15.2949C5.4494 15.0794 5.5128 14.7891 5.66211 14.5254C5.81138 14.2618 6.0275 14.0584 6.18457 13.9014L13.3789 6.70703C13.6922 6.39374 13.997 6.08603 14.2812 5.86914C14.5886 5.63466 14.9864 5.41406 15.5 5.41406L15.6875 5.42383Z" stroke="#585E66" stroke-width="2"/>
<path d="M13 7.5L16 5.5L19 8.5L17 11.5L13 7.5Z" fill="#585E66"/>
</svg>
