<svg width="24" height="24" viewBox="0 0 24 24" fill="none" xmlns="http://www.w3.org/2000/svg">
<path d="M12.5244 6.0835C13.8642 2.89364 18.1308 2.30281 20.2871 5.0083L20.6758 5.49561C22.5316 7.82448 22.2145 11.2038 19.958 13.147L12.5674 19.5112C12.3382 19.7086 12.2234 19.8069 12.0908 19.8315C12.0304 19.8428 11.9686 19.8428 11.9082 19.8315C11.7756 19.8069 11.6609 19.7086 11.4316 19.5112L4.04102 13.147C1.78462 11.2038 1.46747 7.82445 3.32324 5.49561L3.71191 5.0083C5.34527 2.95887 8.18892 2.80162 10.0547 4.23193L8 8.00049L12.5 12.5005L11.5 15.0005L15 12.0005L11 8.00049L12.3535 6.30908C12.4243 6.25287 12.4845 6.17855 12.5244 6.0835Z" fill="#585E66"/>
</svg>
